<svg width="17" height="17" viewBox="0 0 17 17" fill="none" xmlns="http://www.w3.org/2000/svg">
<path d="M10.8749 7.70834H9.29159V4.54168C9.29159 4.33171 9.20818 4.13035 9.05971 3.98188C8.91125 3.83342 8.70988 3.75001 8.49992 3.75001C8.28996 3.75001 8.0886 3.83342 7.94013 3.98188C7.79166 4.13035 7.70826 4.33171 7.70826 4.54168V8.50001C7.70826 8.70997 7.79166 8.91134 7.94013 9.0598C8.0886 9.20827 8.28996 9.29168 8.49992 9.29168H10.8749C11.0849 9.29168 11.2862 9.20827 11.4347 9.0598C11.5832 8.91134 11.6666 8.70997 11.6666 8.50001C11.6666 8.29005 11.5832 8.08868 11.4347 7.94022C11.2862 7.79175 11.0849 7.70834 10.8749 7.70834ZM8.49992 0.583344C6.93415 0.583344 5.40355 1.04765 4.10166 1.91754C2.79977 2.78744 1.78507 4.02385 1.18588 5.47043C0.586682 6.91701 0.429906 8.50879 0.735372 10.0445C1.04084 11.5802 1.79483 12.9908 2.90199 14.0979C4.00916 15.2051 5.41977 15.9591 6.95546 16.2646C8.49114 16.57 10.0829 16.4133 11.5295 15.8141C12.9761 15.2149 14.2125 14.2002 15.0824 12.8983C15.9523 11.5964 16.4166 10.0658 16.4166 8.50001C16.4166 7.46038 16.2118 6.43093 15.814 5.47043C15.4161 4.50994 14.833 3.63721 14.0978 2.90208C13.3627 2.16695 12.49 1.58381 11.5295 1.18596C10.569 0.788114 9.53955 0.583344 8.49992 0.583344ZM8.49992 14.8333C7.24731 14.8333 6.02282 14.4619 4.98131 13.766C3.9398 13.0701 3.12804 12.0809 2.64869 10.9237C2.16933 9.76641 2.04391 8.49298 2.28828 7.26444C2.53266 6.03589 3.13585 4.9074 4.02158 4.02167C4.90731 3.13593 6.0358 2.53274 7.26435 2.28837C8.4929 2.044 9.76632 2.16942 10.9236 2.64877C12.0808 3.12813 13.07 3.93989 13.7659 4.9814C14.4618 6.02291 14.8333 7.2474 14.8333 8.50001C14.8333 10.1797 14.166 11.7906 12.9783 12.9784C11.7905 14.1661 10.1796 14.8333 8.49992 14.8333Z" fill="#525151"/>
</svg>
